<?xml version="1.0" encoding="utf-8"?>
<!-- Generator: Adobe Illustrator 24.1.0, SVG Export Plug-In . SVG Version: 6.00 Build 0)  -->
<svg version="1.1" id="Layer_1" xmlns="http://www.w3.org/2000/svg" xmlns:xlink="http://www.w3.org/1999/xlink" x="0px" y="0px"
	 viewBox="0 0 144 144" style="enable-background:new 0 0 144 144;" xml:space="preserve">
<g>
	<g>
		<g>
			<path d="M7.02,78.6c5.22,0.06,10.24-0.71,15.43-0.95c5.54-0.25,11.11-0.16,16.66-0.24c11.52-0.16,23.03-0.03,34.54,0.35
				c11.01,0.36,22.02,0.87,33.03,1.11c5.43,0.12,10.87,0.18,16.31,0.21c4.66,0.02,10.24,0.85,14.78-0.34
				c5.38-1.42,7.39-8.65,3.31-12.54c-9.08-8.65-19.04-16.15-27.86-25.14c-4.4-4.49-8.71-9.07-13.22-13.45
				c-2.22-2.16-4.48-4.27-6.77-6.35c-1.07-0.97-2.14-1.92-3.26-2.82c-0.33-0.26-3.72-2.74-1.79-1.21
				c-3.03,3.93-6.06,7.85-9.09,11.78c11.06,7.17,21.26,16.18,30.37,25.68c4.08,4.26,7.76,8.29,12.36,12.01
				c4.03,3.26,4.89,8,7.67,12.13c0.39-3.03,0.78-6.06,1.17-9.09c-3.72,3.73-9.01,7.54-12.94,11.83c-4.76,5.21-9.63,10.3-14.48,15.42
				c-9,9.5-18.21,18.89-26.01,29.38c-2.43,3.28-0.51,8.34,2.69,10.26c3.8,2.27,7.86,0.54,10.26-2.69
				c7.37-9.92,16.45-18.73,24.95-27.71c4.63-4.88,9.23-9.78,13.79-14.72c3.81-4.12,8.42-7.25,12.33-11.17
				c2.22-2.23,3.02-6.36,1.17-9.09c-3.23-4.78-4.53-10.41-9.07-14.45c-2.28-2.03-4.91-3.58-7.04-5.8c-2.15-2.25-4.11-4.67-6.27-6.92
				c-9.96-10.39-21.32-20.18-33.41-28.02c-7.01-4.55-15.83,6.43-9.09,11.78c9.05,7.19,16.95,15.58,25.05,23.84
				c8.82,9,18.78,16.5,27.86,25.14c1.1-4.18,2.21-8.36,3.31-12.54c0.78-0.21-0.05-0.1-0.38-0.18c-1.4-0.34-3.25,0-4.68,0
				c-2.55,0-5.1-0.01-7.65-0.02c-5.44-0.04-10.87-0.12-16.31-0.24c-11-0.26-21.99-0.78-32.99-1.13
				c-10.88-0.34-21.77-0.44-32.66-0.29c-5.54,0.08-11.12-0.02-16.66,0.24c-5.18,0.24-10.23,1.01-15.43,0.95
				C-2.64,63.48-2.65,78.48,7.02,78.6L7.02,78.6z"/>
		</g>
	</g>
</g>
</svg>
