<?xml version="1.0" encoding="utf-8"?>
<!-- Generator: Adobe Illustrator 24.1.0, SVG Export Plug-In . SVG Version: 6.00 Build 0)  -->
<svg version="1.1" id="Layer_1" xmlns="http://www.w3.org/2000/svg" xmlns:xlink="http://www.w3.org/1999/xlink" x="0px" y="0px"
	 viewBox="0 0 435.9 374.3" style="enable-background:new 0 0 435.9 374.3;" xml:space="preserve">
<style type="text/css">
	.st0{fill:none;stroke:#000000;stroke-width:7;stroke-miterlimit:10;}
	.st1{stroke:#000000;stroke-width:7;stroke-miterlimit:10;}
</style>
<g>
	<path class="st0" d="M94.9,150.6c11.6-18.8,34.5-17.4,34.5-17.4s-1.4-8.9,5-42.6c6.4-33.7,33.8-52.4,33.8-52.4s6.4,28.5,7.3,52.2
		s-22.4,42.4-22.4,42.4l21.6,5.5c0,0,3.2-14.8,30.3-53.3s62.9-31.6,62.9-31.6s-3.6,16.2-15.9,48.1c-12.3,31.9-37.2,48.4-44.9,55.4
		c7.1,3.3,9.7,12.1,9.7,12.1"/>
	<path class="st1" d="M91.3,154.3c0,0,3.1-1.1,16.8,3.2c20.1,6.3,15.3,20.6,5.7,33.8s-33.2,14.6-43.5,1.4
		c-10.3-13.2-0.1-35.8,22.4-38.3c0.6-1.3,1.3-2.6,2-3.8"/>
	<path class="st0" d="M66.9,187.4c0,0-27.6,0.7-36.8,24.3s32.7,44.8,38.5,44.5c5.9-0.3,33.4-8,36.4-20.9c6.1,8.4,19.6,18.2,47.3,3.3
		c-23.8,13.9-76.2,49.1-76.2,49.1L91,309.4l66.4-54l26,6.7l-30.8,82.7l26.1,9.7l25.4-93.5c0,0,41.6-1.7,56.1-25.4
		c28.8,1.5,76.7,8,110.3-40.5s19.7-77.2,19.7-77.2L426,67.5l-18.4-10.6l-46.2,51.9c0,0-34.4,13.1-34.4,33
		c-25.7-6.2-56.1-7.1-63.6,28"/>
	<path class="st0" d="M372,96.7l-23.3-52.1l-18.9,8.9l11.4,28.7c0,0-26.6,20.8-26.7,35c-13.9-7.6-40.3-20.6-75.6,8.2"/>
	<polyline class="st0" points="30.2,211.8 9.9,209.8 10,231.2 32.5,229.1 	"/>
	<polyline class="st0" points="38.5,238.7 13.2,264.1 26.9,277.3 50.7,248.4 	"/>
	<polyline class="st0" points="58.6,253 55,268.6 70.4,269.5 72.9,255.9 	"/>
	<polyline class="st0" points="81.7,253 89.6,265.5 104.2,257 96.6,245.6 	"/>
	<g>
		<path class="st0" d="M255.7,107.9l22.5,5.2l4.5-12.4c14.9-10.7,36.9-35.5,40.5-56.9S308,11.1,284.1,27.5s-8.4,89.6-1.7,70.2
			s6-40.4-16.9-54.8s-34.1-7-37.9,14.2C223.9,78.3,266.4,96,266.4,96l7.9,21.2l6-21.8L269.6,107l15.2,12.8c0,0-5.2-22-11.3-21.7
			c-6.1,0.3-12.9,4.4-12.9,4.4l34.9,10.7l-9.1-12.4c0,0-10.4,1.7-17.1,2c-1.5,0-2.4,0.7-3.1,1.8c-2.3,3.7-0.3,11.9-0.3,11.9
			l10.3-6.9"/>
		<polyline class="st0" points="284.8,104.3 266.5,108.2 256.4,106.4 288,108 269.3,119.6 266.4,96 		"/>
		<polyline class="st0" points="269.6,92.7 281.3,113 269.1,97.3 		"/>
	</g>
	<polygon class="st1" points="76.2,287.8 92.8,276.7 109.4,294.1 91,309.4 	"/>
	<polygon class="st1" points="152.6,344.9 162,321.4 185.7,327.9 178.7,354.6 	"/>
	<polygon class="st1" points="393.8,72.8 411.5,88.3 426,67.5 407.6,56.9 	"/>
	<polygon class="st1" points="336.2,69.7 356.8,62.7 348.8,44.6 329.9,53.5 	"/>
	<g>
		<path class="st1" d="M122.2,191.1c0-2.2,0.3-4.4,0.8-6.4c-8.2,11-3.4,25.1-3.4,25.1c2.4,12,10.3,13.2,15.1,14
			c3.8,0.6,14.9-2.7,24.8-11.1c-3.7,2.1-7.9,3.3-12.4,3.3C133.3,216,122.2,204.9,122.2,191.1z"/>
		<path class="st0" d="M172,192.1c-0.1,2-0.4,4-0.9,5.9C171.8,195.9,172.1,193.9,172,192.1z"/>
		<path class="st0" d="M126.5,180.8c13-11.2,22.9-11.6,32.2-5.8c6.2,3.9,12.9,9.5,13.3,17.1c0-0.3,0-0.7,0-1
			c0-13.8-11.2-24.9-24.9-24.9c-11.6,0-21.3,7.9-24.1,18.5C124,183.3,125.1,182,126.5,180.8z"/>
		<path class="st0" d="M159.5,212.7c5.6-3.2,9.8-8.5,11.6-14.8c-0.8,2.1-2,4.4-3.8,6.7C164.9,207.8,162.2,210.4,159.5,212.7z"/>
		<path class="st1" d="M158.7,175c-9.3-5.8-19.2-5.4-32.2,5.8c-1.4,1.2-2.6,2.5-3.5,3.8c-0.5,2-0.8,4.2-0.8,6.4
			c0,13.8,11.2,24.9,24.9,24.9c4.5,0,8.8-1.2,12.4-3.3c2.7-2.3,5.3-4.9,7.7-8c1.8-2.4,3.1-4.6,3.8-6.7c0.5-1.9,0.9-3.8,0.9-5.9
			C171.7,184.5,165,178.9,158.7,175z"/>
	</g>
	<circle class="st1" cx="90.2" cy="180.2" r="23.5"/>
</g>
</svg>
