<?xml version="1.0" encoding="utf-8"?>
<!-- Generator: Adobe Illustrator 23.0.2, SVG Export Plug-In . SVG Version: 6.00 Build 0)  -->
<svg version="1.1" id="Layer_1" xmlns="http://www.w3.org/2000/svg" xmlns:xlink="http://www.w3.org/1999/xlink" x="0px" y="0px"
	 viewBox="0 0 435.9 374.3" style="enable-background:new 0 0 435.9 374.3;" xml:space="preserve">
<style type="text/css">
	.st0{fill:#231F20;}
	.st1{fill:#6699FF;}
	.st2{fill:#231F20;stroke:#FFFFFF;stroke-width:0.8922;stroke-miterlimit:10;}
	.st3{fill:#231F20;stroke:#6699FF;stroke-width:1.4161;stroke-miterlimit:10;}
	.st4{fill:none;stroke:#231F20;stroke-width:0.8922;stroke-miterlimit:10;}
</style>
<title>donkey_fly</title>
<path class="st0" d="M323.1,227.6c0,0-14.6,14.6-17.1,20c-4.6,9.2,3.3,16.9,3.3,16.9l-7.3,20.2c0,0-3.1,11.7,5.6,18.3
	c4,3.1,16.7,2.1,16.7,2.1l4.4-12.1l-8.1-2.9c0,0-2.7,2.1-1.7,4.2c0.6,1.5,2.1,2.3,3.5,2.5l-1.5,3.5c0,0-7.5,2.1-11.2-1.7
	c-4.8-4.8-2.9-12.5-2.9-12.5l3.5-8.5l20.6,8.5c0,0,25.8-12.9,36-41.6c0,0,37.9,7.7,62.5-30c0,0-31.9-9-58.3,11.5
	c0.8-6.7,0.6-13.3-0.4-20l-5.6,1.5l-1-5.2l5.6-2.3c-1.9-7.5-4.6-14.6-8.1-21.2l-3.7,2.3l-2.7-4.2l3.5-2.7c0,0-7.9-11.5-15.8-17.3
	l-2.7,3.1l-5.2-3.3l2.5-3.7c-7.1-4.8-14.8-8.3-23.1-10.4l-0.4,4.2l-6.7,0.2v-6c0,0-4.6-0.8-7.5-0.8c0,0-22.7,24.6-46.4,3.5
	s-36.9-76.4-105.4-62c0,0-43.7-8.7-62.3-34.8c0,0,10-28.1-21-44.3c0,0-19.6,38.9,10.6,46.8c0,0,30,35.8,64.5,39.6
	c0,0-21.2,17.3-23.5,56c-50.2-11.9-74.3,18.1-84.7,15.2c-10.6-2.9-19.2-0.8-23.9,9.2l36,13.3c23.3-16.4,53.5-19.8,79.7-9
	c45.4,18.1,92.7,32.7,115.6,89.9c13.7,34.6,23.5,70.6,29.1,107.2h24.6c0,0,1.9-14.8-11.2-21c0,0-9.8-75.8,20.2-116.4
	C317.5,213.3,323.1,227.6,323.1,227.6z"/>
<path class="st0" d="M114.5,113.8l-4.4,19.6c0,0-36-12.1-71.4,13.7L7.9,133.5c0,0,5.6-15.6,18.9-7.1
	C43.5,137.1,71.6,101.5,114.5,113.8z"/>
<path class="st0" d="M237.5,275.5l9.2,37.9l-6.9,37.5c0,0,10.6,4.2,9.6,20.8h-26.9C222.6,371.7,211.3,312.4,237.5,275.5z"/>
<path class="st0" d="M378.1,214.9l-1.5-12.1c0,0,14.2-23.7,48.3-20.8c0,0,2.7,12.1-13.3,22.3C399.7,205,388.1,208.7,378.1,214.9z"/>
<path class="st1" d="M332.5,268.5c0,0,0.2-8.7,9-9.2l-2.5,7.1C337.1,268,334.8,268.7,332.5,268.5z"/>
<path class="st2" d="M161.3,62.5l-2.7-0.4c0,0-11.2-4.6-7.5-7.9C156.3,49.4,161.3,62.5,161.3,62.5z"/>
<g>
	<path class="st0" d="M158.6,62.7l2.1-1.5c0,0,6.5-10.6,0.6-11.5C154.7,48.8,158.6,62.7,158.6,62.7z"/>
	<path class="st1" d="M158.2,63.9l-0.3-1c-0.3-1-2.6-9.6,0.1-12.8c0.6-0.6,1.6-1.3,3.3-1.1c1.6,0.3,2.4,1.2,2.7,1.9
		c1.6,3.4-2.4,10-2.8,10.7l-0.1,0.1L158.2,63.9z M160.7,50.4c-0.7,0-1.2,0.2-1.6,0.7c-1.7,1.9-0.8,7.5-0.1,10.5l1.1-0.8
		c1.2-1.9,3.7-7,2.7-9.2c-0.3-0.6-0.8-0.9-1.6-1.1C161,50.4,160.9,50.4,160.7,50.4z"/>
</g>
<ellipse transform="matrix(0.9512 -0.3087 0.3087 0.9512 -10.9019 53.3067)" class="st3" cx="163" cy="61.1" rx="5.2" ry="2.7"/>
<polyline class="st4" points="158.2,63.4 159.1,64.4 159.5,65.2 "/>
<polyline class="st4" points="161.5,60.7 164.3,60 166.3,62.7 "/>
<polyline class="st4" points="161.8,60 161.8,60 162.4,64 "/>
<polyline class="st4" points="157,63.4 155.7,64.4 155.3,65.2 "/>
<ellipse class="st0" cx="157.4" cy="62.1" rx="2.5" ry="2.1"/>
</svg>
