<?xml version="1.0" encoding="utf-8"?>
<!-- Generator: Adobe Illustrator 24.1.0, SVG Export Plug-In . SVG Version: 6.00 Build 0)  -->
<svg version="1.1" id="Layer_1" xmlns="http://www.w3.org/2000/svg" xmlns:xlink="http://www.w3.org/1999/xlink" x="0px" y="0px"
	 viewBox="0 0 435.9 374.3" style="enable-background:new 0 0 435.9 374.3;" xml:space="preserve">
<style type="text/css">
	.st0{fill:none;stroke:#000000;stroke-width:5;stroke-miterlimit:10;}
	.st1{stroke:#000000;stroke-width:5;stroke-miterlimit:10;}
</style>
<g>
	<path class="st0" d="M91.6,149.7c11.9-19.3,35.5-17.9,35.5-17.9s-1.4-9.2,5.2-43.7c6.6-34.6,34.7-53.8,34.7-53.8s6.5,29.2,7.5,53.6
		s-23,43.5-23,43.5l22.2,5.7c0,0,3.3-15.2,31.1-54.7s64.6-32.5,64.6-32.5s-3.7,16.6-16.4,49.4s-38.2,49.7-46,56.8
		c7.3,3.3,10,12.4,10,12.4"/>
	<path class="st1" d="M87.9,153.5c0,0,3.1-1.1,17.3,3.3c20.7,6.4,15.8,21.2,5.9,34.7s-34.1,15-44.6,1.4s-0.1-36.8,23-39.3
		c0.6-1.4,1.4-2.7,2.1-3.9"/>
	<path class="st0" d="M62.9,187.5c0,0-28.4,0.8-37.7,25s33.6,46,39.6,45.7s34.3-8.2,37.4-21.4c6.3,8.6,20.1,18.7,48.5,3.3
		c-24.5,14.3-78.3,50.4-78.3,50.4l15.2,22.1l68.2-55.4l26.7,6.9L150.9,349l26.8,10l26.1-95.9c0,0,42.7-1.7,57.6-26.1
		c29.5,1.6,78.7,8.2,113.2-41.6s20.2-79.3,20.2-79.3l36.8-51.9l-18.9-10.9l-47.5,53.2c0,0-35.3,13.5-35.4,33.9
		c-26.3-6.4-57.5-7.3-65.3,28.7"/>
	<path class="st0" d="M376.1,94.3l-23.9-53.5l-19.4,9.1l11.7,29.4c0,0-27.3,21.4-27.4,36c-14.3-7.8-41.3-21.1-77.6,8.5"/>
	<polyline class="st0" points="25.2,212.4 4.4,210.4 4.5,232.4 27.6,230.2 	"/>
	<polyline class="st0" points="33.7,240.1 7.8,266.1 21.8,279.7 46.2,250 	"/>
	<polyline class="st0" points="54.4,254.7 50.6,270.8 66.5,271.7 69.1,257.7 	"/>
	<polyline class="st0" points="78.1,254.7 86.2,267.5 101.1,258.9 93.4,247.1 	"/>
	<g>
		<path class="st0" d="M256.7,105.8l23.1,5.3l4.6-12.8C299.7,87.4,322.3,61.9,326,40s-15.6-33.6-40.2-16.7
			c-24.5,16.9-8.6,92-1.7,72.1s6.2-41.5-17.3-56.2s-35-7.1-38.9,14.6c-3.8,21.7,39.7,39.9,39.7,39.9l8.1,21.7l6.1-22.4l-10.9,11.9
			l15.6,13.1c0,0-5.3-22.6-11.6-22.3c-6.3,0.3-13.2,4.5-13.2,4.5l35.8,11l-9.4-12.7c0,0-10.7,1.8-17.5,2c-1.5,0-2.5,0.7-3.2,1.8
			c-2.3,3.8-0.3,12.2-0.3,12.2l10.6-7.1"/>
		<polyline class="st0" points="286.5,102.1 267.8,106.1 257.4,104.2 289.9,105.9 270.6,117.8 267.6,93.6 		"/>
		<polyline class="st0" points="271,90.2 283,111 270.4,95 		"/>
	</g>
	<polygon class="st1" points="72.4,290.5 89.5,279.1 106.5,296.9 87.6,312.6 	"/>
	<polygon class="st1" points="150.9,349.1 160.5,324.9 184.8,331.7 177.7,359.1 	"/>
	<polygon class="st1" points="398.5,69.7 416.6,85.6 431.5,64.3 412.6,53.4 	"/>
	<polygon class="st1" points="339.3,66.6 360.5,59.4 352.3,40.8 332.9,49.9 	"/>
	<g>
		<path class="st1" d="M121.96,194.17c0-2.3,0.3-4.5,0.9-6.6c-8.4,11.3-3.5,25.8-3.5,25.8c2.5,12.3,10.5,13.6,15.5,14.4
			c3.9,0.6,15.3-2.7,25.5-11.3c-3.8,2.2-8.1,3.4-12.8,3.4C133.46,219.77,121.96,208.27,121.96,194.17z"/>
		<path class="st1" d="M173.16,195.17c-0.1,2.1-0.4,4.1-1,6C172.96,199.07,173.26,197.07,173.16,195.17z"/>
		<path class="st1" d="M126.46,183.67c13.3-11.5,23.5-11.9,33.1-6c6.4,4,13.3,9.7,13.6,17.5c0-0.3,0-0.7,0-1
			c0-14.1-11.5-25.6-25.6-25.6c-11.9,0-21.8,8.1-24.8,19C123.86,186.17,125.06,184.87,126.46,183.67z"/>
		<path class="st1" d="M160.36,216.37c5.7-3.3,10-8.7,11.9-15.1c-0.8,2.2-2.1,4.5-4,6.9C165.86,211.27,163.16,213.97,160.36,216.37z
			"/>
		<path class="st1" d="M159.56,177.67c-9.5-5.9-19.8-5.5-33.1,6c-1.4,1.2-2.6,2.6-3.6,3.9c-0.6,2.1-0.9,4.3-0.9,6.6
			c0,14.1,11.5,25.6,25.6,25.6c4.6,0,9-1.2,12.8-3.4c2.8-2.3,5.5-5.1,7.9-8.2c1.9-2.4,3.2-4.7,4-6.9c0.6-1.9,0.9-3.9,1-6
			C172.76,187.37,165.96,181.67,159.56,177.67z"/>
	</g>
	<circle class="st1" cx="86.8" cy="180" r="24.2"/>
</g>
</svg>
